<svg xmlns="http://www.w3.org/2000/svg" width="44" height="50" viewBox="0 0 44 50" fill="none">
  <g clip-path="url(#clip0_2_4317)">
    <path d="M22 25C28.9437 25 34.5714 19.4043 34.5714 12.5C34.5714 5.5957 28.9437 0 22 0C15.0562 0 9.42857 5.5957 9.42857 12.5C9.42857 19.4043 15.0562 25 22 25ZM31.4089 28.1836L26.7143 46.875L23.5714 33.5938L26.7143 28.125H17.2857L20.4286 33.5938L17.2857 46.875L12.5911 28.1836C5.58839 28.5156 0 34.209 0 41.25V45.3125C0 47.9004 2.11161 50 4.71429 50H39.2857C41.8884 50 44 47.9004 44 45.3125V41.25C44 34.209 38.4116 28.5156 31.4089 28.1836Z" fill="#66023C"/>
  </g>
  <defs>
    <clipPath id="clip0_2_4317">
      <rect width="44" height="50" fill="white"/>
    </clipPath>
  </defs>
</svg>