<svg width="128" height="88" viewBox="0 0 128 88" fill="none" xmlns="http://www.w3.org/2000/svg">
<g id="Group 10654">
<path id="Vector" d="M127.946 80.0595C128.431 78.7484 72.7254 36.6866 72.7254 36.6866C65.7515 31.5402 62.0836 31.4592 55.1872 36.6866C55.1872 36.6866 -0.436908 78.7144 0.0312677 80.0075L0.0200195 80.017C0.0257686 80.0282 0.0350171 80.036 0.0427659 80.0462C0.514425 81.332 1.20062 82.5285 2.07219 83.5849C2.44038 84.0313 2.88406 84.4053 3.31074 84.794L3.29 84.8099C3.32399 84.8402 3.36923 84.8542 3.40323 84.8844C5.21169 86.4977 7.49233 87.5425 10.0259 87.8407C10.0657 87.8455 10.0977 87.8662 10.1374 87.871H10.2904C10.6756 87.9077 11.0418 88.0002 11.4362 88.0002H116.6C121.778 88.0002 126.165 84.7437 127.908 80.1787C127.929 80.1447 127.961 80.1202 127.98 80.0852L127.946 80.0595Z" fill="#96A9B2"/>
<path id="Vector_2" d="M64.033 31.8594L0.313965 79.6488V11.9473C0.313965 5.34839 5.66236 0 12.2613 0H115.805C122.404 0 127.752 5.34839 127.752 11.9473V79.6488L64.033 31.8594Z" fill="#B9C5C6"/>
<path id="Vector_3" d="M1.05713 7.79345L55.4597 50.5239C62.3261 55.5908 65.9375 55.6708 72.7277 50.5239L127.045 7.8612C126.102 6.15297 124.692 4.80343 123.078 3.72736L123.825 3.14195C122.002 1.48196 119.671 0.405885 117.084 0.12793L10.9868 0.131681C8.40671 0.405887 6.07208 1.48571 4.25237 3.14195L4.994 3.72011C3.39925 4.78119 2.00148 6.10747 1.05713 7.79345Z" fill="#EDECE6"/>
<path id="Vector_4" d="M1.03935 7.88295C0.56168 9.174 55.4087 50.5874 55.4087 50.5874C62.2751 55.6543 65.8865 55.7343 72.6767 50.5874C72.6767 50.5874 127.444 9.20749 126.982 7.9342L126.994 7.92495C126.988 7.9137 126.979 7.90645 126.971 7.8962C126.507 6.63023 125.831 5.45214 124.973 4.41201C124.611 3.97233 124.174 3.60439 123.754 3.22145L123.774 3.2057C123.741 3.17596 123.697 3.16196 123.663 3.13221C121.882 1.54397 119.637 0.515131 117.143 0.221428C117.104 0.216678 117.072 0.196433 117.033 0.191683H116.882C116.503 0.155439 116.142 0.0644531 115.754 0.0644531H12.2106C7.11188 0.0644531 2.79207 3.27094 1.0766 7.76547C1.0561 7.79897 1.02461 7.82321 1.00586 7.85746L1.03935 7.88295Z" fill="#DCE2E2"/>
</g>
</svg>
