<svg width="130" height="131" viewBox="0 0 130 131" fill="none" xmlns="http://www.w3.org/2000/svg">
<g id="Group 10620">
<path id="Subtract" fill-rule="evenodd" clip-rule="evenodd" d="M-0.000244141 65.9982C-0.000244141 101.007 27.6801 129.555 62.3479 130.946C62.9329 130.979 63.5212 130.998 64.1094 130.998C64.4062 131 64.7031 131 64.9999 130.998C100.9 130.998 130 101.898 130 65.9982C130 30.0986 100.9 0.998047 64.9999 0.998047C29.1003 0.998047 -0.000244141 30.0986 -0.000244141 65.9982ZM81.9512 83.4483C79.6532 85 76.4531 85 70.0551 85H60.9449C54.5468 85 51.3468 85 49.0487 83.4483C48.0524 82.7749 47.1996 81.9115 46.5354 80.9066C45 78.5822 45 75.348 45 68.8796C45 62.4091 45 59.1748 46.5375 56.8526C47.2045 55.8439 48.0578 54.9802 49.0487 54.3109C50.5268 53.3144 52.3759 52.9555 55.2049 52.8289C56.5559 52.8289 57.7182 51.7944 57.9827 50.4539C58.3803 48.4462 60.1249 47.0001 62.1503 47.0001H68.8497C69.8244 46.9934 70.7714 47.3334 71.5308 47.9627C72.2902 48.5919 72.8153 49.4719 73.0173 50.4539C73.2818 51.7944 74.4441 52.8289 75.7951 52.8289C78.6261 52.9555 80.4753 53.3123 81.9512 54.3109C82.9428 54.9801 83.7968 55.8438 84.4645 56.8526C86 59.1748 86 62.4091 86 68.8796C86 75.348 86 78.5844 84.4645 80.9066C83.7968 81.9154 82.9428 82.7791 81.9512 83.4483ZM56.9576 68.8775C56.9576 64.1085 60.7829 60.2431 65.5 60.2431C70.217 60.2431 74.0424 64.1085 74.0424 68.8796C74.0424 73.6486 70.217 77.514 65.5 77.514C60.7829 77.514 56.9576 73.6486 56.9576 68.8775ZM60.375 68.8796C60.375 66.0169 62.671 63.6968 65.5 63.6968C68.329 63.6968 70.625 66.0169 70.625 68.8796C70.625 71.7402 68.329 74.0602 65.5 74.0602C62.671 74.0602 60.375 71.7402 60.375 68.8796ZM76.8898 60.2431C75.9447 60.2431 75.1801 61.0157 75.1801 61.9699C75.1822 62.1989 75.2282 62.4253 75.3152 62.636C75.4023 62.8467 75.5289 63.0377 75.6876 63.1981C75.8464 63.3584 76.0343 63.485 76.2405 63.5706C76.4468 63.6562 76.6674 63.6991 76.8898 63.6968H79.1674C79.6161 63.7008 80.048 63.5211 80.3682 63.1973C80.6884 62.8735 80.8707 62.4321 80.875 61.9699C80.875 61.0157 80.1083 60.2431 79.1653 60.2431H76.8898Z" fill="#66023C"/>
</g>
</svg>
