<svg xmlns="http://www.w3.org/2000/svg" width="50" height="40" viewBox="0 0 50 40" fill="none">
  <path d="M0.295 22.581C0.49823 24.1353 1.25991 25.5625 2.43796 26.5966C3.61602 27.6306 5.13 28.2008 6.6975 28.2008C8.265 28.2008 9.77898 27.6306 10.957 26.5966C12.1351 25.5625 12.8968 24.1353 13.1 22.581H0.295ZM35.182 35.58C35.1824 35.7114 35.1569 35.8416 35.1069 35.9631C35.057 36.0847 34.9836 36.1952 34.8909 36.2883C34.7982 36.3815 34.6881 36.4555 34.5668 36.506C34.4455 36.5566 34.3154 36.5827 34.184 36.583H15.528C14.98 36.583 14.528 36.133 14.528 35.58C14.5293 35.3158 14.6353 35.063 14.8228 34.8768C15.0102 34.6907 15.2638 34.5865 15.528 34.587H34.183C34.735 34.587 35.182 35.031 35.182 35.58ZM14.637 37.094H35.074V39.981H14.637V37.094ZM36.9 22.581C37.1018 24.1363 37.8629 25.565 39.0409 26.6003C40.219 27.6356 41.7337 28.2067 43.302 28.207C44.8701 28.207 46.3846 27.6359 47.5623 26.6005C48.74 25.5651 49.5002 24.1362 49.701 22.581H36.9ZM49.349 20.572L44.106 13.35H46.909C47.591 13.35 48.14 12.791 48.14 12.1C48.14 11.415 47.59 10.862 46.909 10.862H32.061C31.6202 9.64791 30.8675 8.57134 29.8784 7.74064C28.8894 6.90995 27.699 6.35443 26.427 6.13V2.233C26.427 1.54 25.871 0.986999 25.182 0.986999L25.066 0.999999L24.95 0.986999C24.7864 0.986602 24.6243 1.01858 24.4732 1.08109C24.322 1.14361 24.1847 1.23542 24.0691 1.35124C23.9536 1.46706 23.8621 1.6046 23.7999 1.75593C23.7378 1.90727 23.7062 2.0694 23.707 2.233V6.128C22.4352 6.35227 21.245 6.90776 20.2562 7.7385C19.2675 8.56925 18.5151 9.6459 18.075 10.86H3.224C2.547 10.86 1.995 11.413 1.995 12.098C1.995 12.79 2.547 13.348 3.224 13.348H5.899L0.655 20.57H0V21.904H13.398V20.57H12.74L7.498 13.35H19.667C19.667 13.068 19.698 12.791 19.74 12.526C19.783 12.401 19.812 12.274 19.812 12.143C20.0374 11.1929 20.5201 10.3233 21.2072 9.62955C21.8943 8.93577 22.7592 8.44463 23.707 8.21V21.907H23.655C23.548 27.059 21.097 31.552 17.461 34.077H32.675C29.038 31.552 26.589 27.059 26.476 21.907H26.428V8.21C27.3757 8.44469 28.2404 8.93587 28.9273 9.62965C29.6142 10.3234 30.0968 11.193 30.322 12.143C30.326 12.274 30.353 12.401 30.397 12.526C30.437 12.792 30.462 13.068 30.462 13.35H42.504L37.26 20.572H36.606V21.906H50V20.572H49.349ZM6.165 20.572H1.98L6.165 14.807V20.572ZM7.236 20.572V14.807L11.421 20.572H7.236ZM42.768 20.572H38.581L42.768 14.807V20.572ZM43.834 20.572V14.807L48.024 20.572H43.834ZM7.941 9.124C7.93182 9.44743 7.79689 9.75453 7.56488 9.98006C7.33287 10.2056 7.02206 10.3317 6.6985 10.3317C6.37494 10.3317 6.06413 10.2056 5.83212 9.98006C5.60011 9.75453 5.46518 9.44743 5.456 9.124C5.456 8.438 6.014 7.878 6.701 7.878C7.385 7.877 7.941 8.438 7.941 9.124ZM44.545 9.058C44.545 9.749 43.989 10.297 43.303 10.297C43.1399 10.2981 42.9781 10.2668 42.8272 10.2049C42.6762 10.143 42.539 10.0519 42.4235 9.93665C42.308 9.82143 42.2165 9.68444 42.1542 9.53362C42.092 9.3828 42.0603 9.22115 42.061 9.058C42.0543 8.8907 42.0814 8.72378 42.1408 8.56723C42.2002 8.41069 42.2906 8.26776 42.4066 8.14702C42.5226 8.02628 42.6618 7.93022 42.8158 7.8646C42.9699 7.79898 43.1356 7.76515 43.303 7.76515C43.4704 7.76515 43.6361 7.79898 43.7902 7.8646C43.9442 7.93022 44.0834 8.02628 44.1994 8.14702C44.3154 8.26776 44.4058 8.41069 44.4652 8.56723C44.5246 8.72378 44.5517 8.8907 44.545 9.058Z" fill="#66023C"/>
</svg>