<svg width="99" height="103" viewBox="0 0 99 103" fill="none" xmlns="http://www.w3.org/2000/svg">
<g id="Frame 3">
<g id="Group 10327">
<g id="Group 10323">
<g id="Group 10320">
<g id="Group 10319">
<path id="Path 2427" d="M53.931 35.0259L60.5019 92.725L49.4714 102.797L38.4297 92.7319L44.9646 34.983C46.5252 35.1501 48.0935 35.2345 49.663 35.2361C51.1029 35.2384 52.5271 35.1615 53.931 35.0259ZM42.7134 31.0489C47.1387 31.7797 51.6533 31.7797 56.0785 31.0489L59.7989 21H38.9818L42.7134 31.0489Z" fill="#66023C"/>
</g>
</g>
<g id="Group 10322">
<g id="Group 10321">
<path id="Path 2428" d="M68.5458 45.0222C68.5458 44.0556 68.9288 43.1285 69.6104 42.4449C70.2921 41.7614 71.2166 41.3773 72.1806 41.3773C73.1446 41.3773 74.0691 41.7614 74.7508 42.4449C75.4324 43.1285 75.8153 44.0556 75.8153 45.0222V89.0005H73.8954L68.5458 45.0222ZM30.3841 45.0222C30.3841 44.0556 30.0012 43.1285 29.3195 42.4449C28.6379 41.7614 27.7133 41.3773 26.7493 41.3773C25.7853 41.3773 24.8608 41.7614 24.1792 42.4449C23.4975 43.1285 23.1145 44.0556 23.1145 45.0222V89.0005H25.0322L30.3841 45.0222ZM98.3113 14.9683C96.8338 9.94861 93.4595 5.7062 88.9077 3.14549C85.8484 1.33634 82.4031 0.284382 78.8575 0.076822C78.4699 0.054225 77.4513 0.0022597 77.2936 0H21.6994C21.5417 0 20.5254 0.054225 20.1378 0.076822C16.5922 0.284382 13.1468 1.33634 10.0875 3.14549C5.53567 5.7062 2.16144 9.94861 0.684016 14.9683C0.0157647 17.4148 -0.165199 19.9695 0.151468 22.4862C0.468136 25.003 1.27623 27.4325 2.52957 29.6359C3.77957 31.8684 5.52268 33.7842 7.62529 35.2366C9.72789 36.689 12.1342 37.6394 14.6597 38.0149C17.0538 38.3366 19.4896 38.0975 21.776 37.3165C24.0625 36.5355 26.1373 35.2338 27.8377 33.5136C29.4382 31.8806 30.5859 29.8568 31.1673 27.6426C31.7486 25.4284 31.7436 23.1003 31.1525 20.8887C30.6279 18.7347 29.5045 16.7742 27.913 15.235C26.3214 13.6958 24.3269 12.6411 22.1613 12.1934C20.1351 11.8051 18.0386 12.0587 16.1626 12.9192C14.2866 13.7796 12.7241 15.2041 11.6919 16.9952C11.0687 18.1123 10.736 19.3687 10.7246 20.6486C10.7131 21.9286 11.0234 23.1908 11.6266 24.3189C12.1876 25.3824 13.0381 26.2644 14.0793 26.8625C15.1204 27.4605 16.3093 27.7499 17.508 27.6971C18.7947 27.6038 20.0028 27.0411 20.904 26.1153C21.1502 25.85 21.3621 25.5546 21.5349 25.2363C21.6566 25.0103 21.7287 24.9606 21.5124 24.8251C21.26 24.6669 21.1068 24.4838 20.8567 24.6714C20.5592 24.8973 20.2797 25.1527 19.9665 25.3493C19.4367 25.6517 18.8387 25.8135 18.2291 25.8193C17.6462 25.8298 17.0679 25.714 16.5336 25.48C15.9992 25.2461 15.5215 24.8994 15.1329 24.4635C14.6642 23.9102 14.3385 23.2498 14.1844 22.5405C14.0304 21.8311 14.0528 21.0947 14.2496 20.396C14.6691 19.1316 15.5302 18.0619 16.6743 17.3839C17.9721 16.6149 19.5114 16.3648 20.985 16.6834C22.2329 16.9802 23.3756 17.6149 24.2886 18.5182C25.0631 19.347 25.6619 20.3249 26.0485 21.3926C26.4624 22.5772 26.5882 23.8438 26.4153 25.087C26.2425 26.3302 25.776 27.5141 25.0547 28.54C23.5118 30.6068 21.2346 31.9986 18.6956 32.4267C16.0388 32.8917 13.3061 32.292 11.0858 30.7568C9.0624 29.303 7.51059 27.284 6.62401 24.9516C5.75686 22.6617 5.50757 20.1829 5.90125 17.7655C6.29492 15.348 7.31761 13.0776 8.86615 11.1833C11.3386 8.29354 14.6823 6.28985 18.3913 5.47526C19.8998 5.13542 21.4424 4.97163 22.9884 4.98715H76.0182C77.5642 4.97163 79.1067 5.13542 80.6151 5.47526C84.3242 6.29 87.6678 8.29367 90.1404 11.1833C91.6889 13.0776 92.7116 15.348 93.1053 17.7655C93.499 20.1829 93.2497 22.6617 92.3826 24.9516C91.4966 27.2837 89.9456 29.3027 87.923 30.7568C85.7027 32.292 82.97 32.8917 80.3132 32.4267C77.7742 31.9986 75.497 30.6068 73.954 28.54C73.2328 27.5141 72.7664 26.3302 72.5935 25.087C72.4207 23.8438 72.5464 22.5772 72.9603 21.3926C73.3469 20.3249 73.9457 19.3471 74.7202 18.5182C75.6331 17.6149 76.7758 16.9802 78.0237 16.6834C79.4974 16.3648 81.0366 16.6149 82.3345 17.3839C83.4777 18.0623 84.338 19.132 84.757 20.396C84.9538 21.0947 84.9761 21.8311 84.8221 22.5405C84.668 23.2498 84.3423 23.9102 83.8736 24.4635C83.485 24.8994 83.0073 25.2461 82.473 25.48C81.9387 25.714 81.3604 25.8298 80.7774 25.8193C80.1671 25.8139 79.5682 25.6521 79.0378 25.3493C78.7246 25.1459 78.4473 24.8973 78.1476 24.6714C77.8975 24.4838 77.7443 24.6714 77.4919 24.8251C77.2666 24.9606 77.3477 25.0103 77.4694 25.2363C77.6422 25.5546 77.8541 25.85 78.1003 26.1153C79.0013 27.0413 80.2095 27.604 81.4963 27.6971C82.695 27.7499 83.8839 27.4605 84.925 26.8625C85.9662 26.2644 86.8167 25.3824 87.3777 24.3189C87.9809 23.1908 88.2911 21.9286 88.2797 20.6486C88.2683 19.3687 87.9356 18.1123 87.3124 16.9952C86.2801 15.2041 84.7177 13.7796 82.8417 12.9192C80.9657 12.0587 78.8692 11.8051 76.843 12.1934C74.6774 12.6411 72.6829 13.6958 71.0913 15.235C69.4997 16.7742 68.3764 18.7347 67.8517 20.8887C67.2607 23.1003 67.2557 25.4284 67.837 27.6426C68.4184 29.8568 69.566 31.8806 71.1665 33.5136C72.867 35.2338 74.9418 36.5355 77.2283 37.3165C79.5147 38.0975 81.9505 38.3366 84.3446 38.0149C86.8701 37.6394 89.2764 36.689 91.379 35.2366C93.4816 33.7842 95.2247 31.8684 96.4747 29.6359C97.7271 27.4317 98.5342 25.0016 98.8497 22.4844C99.1652 19.9673 98.983 17.4125 98.3135 14.966L98.3113 14.9683ZM34.625 15.1287H64.3004L67.1352 10.3833H31.7925L34.625 15.1287Z" fill="#66023C"/>
</g>
</g>
</g>
</g>
</g>
</svg>
