<svg width="130" height="131" viewBox="0 0 130 131" fill="none" xmlns="http://www.w3.org/2000/svg">
<g id="Group 10620">
<path id="Vector" d="M91.1852 52.9981C91.1852 59.8938 88.4459 66.507 83.5699 71.3829C78.694 76.2589 72.0808 78.9982 65.1851 78.9982C58.2895 78.9982 51.6763 76.2589 46.8003 71.3829C41.9243 66.507 39.1851 59.8938 39.1851 52.9981C39.1851 46.1025 41.9243 39.4892 46.8003 34.6133C51.6763 29.7373 58.2895 26.998 65.1851 26.998C72.0808 26.998 78.694 29.7373 83.5699 34.6133C88.4459 39.4892 91.1852 46.1025 91.1852 52.9981Z" fill="#650E3D"/>
<path id="Subtract" fill-rule="evenodd" clip-rule="evenodd" d="M0 65.9982C0 101.007 27.6803 129.555 62.3482 130.946C62.9332 130.979 63.5214 130.998 64.1097 130.998C64.4065 131 64.7033 131 65.0002 130.998C100.9 130.998 130 101.898 130 65.9982C130 30.0986 100.9 0.998047 65.0002 0.998047C29.1006 0.998047 0 30.0986 0 65.9982ZM22.8056 102.662C22.6381 104.13 22.8036 105.618 23.2896 107.013C12.9058 96.4573 6.50002 81.9752 6.50002 65.9982C6.50002 33.6899 32.6918 7.49806 65.0002 7.49806C97.3085 7.49806 123.5 33.6899 123.5 65.9982C123.52 81.3705 117.468 96.1287 106.662 107.062C107.17 105.674 107.355 104.187 107.202 102.717C107.05 101.246 106.563 99.8296 105.78 98.5753C104.998 97.321 103.939 96.2619 102.685 95.4787C101.43 94.6954 100.014 94.2087 98.5435 94.0555C73.3299 91.4458 56.8264 91.1923 31.4893 93.997C30.0206 94.1613 28.6078 94.6542 27.3557 95.4393C26.1036 96.2243 25.0444 97.2812 24.2567 98.5316C23.469 99.7821 22.973 101.194 22.8056 102.662ZM67.3619 120.031H62.762C59.5315 120.031 57.9158 120.031 56.7555 119.246C56.2524 118.906 55.8218 118.469 55.4865 117.961C54.7112 116.785 54.7112 115.149 54.7112 111.877C54.7112 108.603 54.7112 106.967 55.4875 105.793C55.8243 105.282 56.2551 104.845 56.7555 104.507C57.5018 104.003 58.4354 103.821 59.8638 103.757C60.5459 103.757 61.1328 103.234 61.2663 102.556C61.4671 101.54 62.348 100.809 63.3706 100.809H66.7532C67.2454 100.805 67.7235 100.977 68.107 101.295C68.4904 101.614 68.7555 102.059 68.8575 102.556C68.9911 103.234 69.578 103.757 70.2601 103.757C71.6895 103.821 72.6231 104.002 73.3684 104.507C73.8691 104.845 74.3003 105.282 74.6374 105.793C75.4127 106.967 75.4127 108.603 75.4127 111.877C75.4127 115.149 75.4127 116.786 74.6374 117.961C74.3002 118.471 73.8691 118.908 73.3684 119.246C72.2081 120.031 70.5923 120.031 67.3619 120.031ZM60.7488 111.875C60.7488 109.463 62.6802 107.508 65.0619 107.508C67.4436 107.508 69.3751 109.463 69.3751 111.877C69.3751 114.289 67.4436 116.244 65.0619 116.244C62.6802 116.244 60.7488 114.289 60.7488 111.875ZM62.4742 111.877C62.4742 110.428 63.6335 109.255 65.0619 109.255C66.4903 109.255 67.6496 110.428 67.6496 111.877C67.6496 113.324 66.4903 114.497 65.0619 114.497C63.6335 114.497 62.4742 113.324 62.4742 111.877ZM70.8128 107.508C70.3356 107.508 69.9495 107.898 69.9495 108.381C69.9506 108.497 69.9738 108.612 70.0178 108.718C70.0618 108.825 70.1256 108.921 70.2058 109.002C70.286 109.084 70.3808 109.148 70.485 109.191C70.5891 109.234 70.7005 109.256 70.8128 109.255H71.9628C72.1893 109.257 72.4074 109.166 72.5691 109.002C72.7308 108.838 72.8228 108.615 72.825 108.381C72.825 107.898 72.4379 107.508 71.9617 107.508H70.8128Z" fill="#650E3D"/>
</g>
</svg>
