<svg xmlns="http://www.w3.org/2000/svg" width="40" height="18" viewBox="0 0 40 18" fill="none">
  <path d="M15.187 0.230526L9.95 12.8555H6.53344L3.95625 2.77958C3.8 2.16047 3.66422 1.93263 3.18875 1.67084C2.41156 1.24421 1.12812 0.845211 0 0.597L0.0760937 0.230526H5.57672C6.27672 0.230526 6.90703 0.701526 7.06734 1.51705L8.42906 8.82332L11.7909 0.230526H15.187ZM19.8058 0.230526L17.1334 12.8555H13.9009L16.5736 0.230526H19.8058ZM28.5739 8.73347C28.5873 5.40205 24.0155 5.21716 24.0453 3.72868C24.0562 3.27616 24.4828 2.79442 25.4166 2.67126C25.8791 2.61079 27.1569 2.56263 28.6042 3.23653L29.1705 0.557684C28.3928 0.273474 27.392 0 26.1472 0C22.9519 0 20.7042 1.71505 20.6862 4.17284C20.6653 5.99084 22.2917 7.00405 23.5148 7.60958C24.7747 8.22789 25.1972 8.62532 25.1914 9.17795C25.1823 10.0251 24.1852 10.4001 23.2581 10.4139C21.6325 10.44 20.6902 9.96995 19.9384 9.61611L19.3517 12.3837C20.108 12.7339 21.5017 13.0382 22.9453 13.0536C26.3422 13.0536 28.5639 11.3582 28.5739 8.73347ZM37.0114 12.8555H40L37.3891 0.230526H34.6317C34.0098 0.230526 33.4872 0.595263 33.2553 1.15595L28.4053 12.8555H31.7995L32.4728 10.9696H36.6197L37.0114 12.8555ZM33.4036 8.38247L35.1055 3.64137L36.0831 8.38247H33.4034H33.4036ZM23.9427 16.3306H22.6292V17.5658H24.0983V17.9372H22.1867V14.5105H24.023V14.8819H22.6292V15.9646H23.9425V16.3309L23.9427 16.3306ZM24.7769 14.3275H25.2194V17.937H24.7769V14.3275ZM26.3359 16.788C26.3459 17.3932 26.7234 17.6422 27.1709 17.6422C27.4881 17.6422 27.6842 17.5863 27.8455 17.5153L27.9258 17.8356C27.7698 17.9067 27.4983 17.9931 27.1106 17.9931C26.3612 17.9931 25.9136 17.4898 25.9136 16.7474C25.9136 16.0053 26.3459 15.4255 27.0555 15.4255C27.8555 15.4255 28.0617 16.1274 28.0617 16.5797C28.0617 16.6712 28.0566 16.7372 28.0464 16.7882L26.3359 16.788ZM27.6339 16.4678C27.6391 16.1883 27.5183 15.7459 27.0202 15.7459C26.5673 15.7459 26.3761 16.1577 26.3408 16.4678H27.6339ZM30.4705 17.8506C30.3548 17.9067 30.0981 17.9932 29.7712 17.9932C29.0367 17.9932 28.5588 17.4898 28.5588 16.7373C28.5588 15.9797 29.0717 15.4257 29.8667 15.4257C30.1283 15.4257 30.3597 15.4915 30.4805 15.5578L30.3802 15.8984C30.2741 15.8425 30.1081 15.7813 29.8667 15.7813C29.3081 15.7813 29.0066 16.2033 29.0066 16.7121C29.0066 17.2813 29.3687 17.6321 29.8517 17.6321C30.1033 17.6321 30.2692 17.5712 30.395 17.5153L30.4705 17.8506ZM31.7123 14.8866V15.4764H32.3461V15.8168H31.7123V17.1439C31.7123 17.4493 31.798 17.6218 32.0444 17.6218C32.165 17.6218 32.2356 17.6119 32.3011 17.5912L32.3213 17.9323C32.2356 17.9626 32.0998 17.9931 31.9287 17.9931C31.7223 17.9931 31.5563 17.9218 31.4508 17.8052C31.33 17.6676 31.2797 17.4493 31.2797 17.1594V15.8168H30.9022V15.4764H31.2797V15.0189L31.7125 14.8868L31.7123 14.8866ZM32.9644 16.2442C32.9644 15.9543 32.9591 15.7053 32.9442 15.4764H33.3317L33.352 15.9643H33.3667C33.4777 15.6341 33.7491 15.4255 34.0458 15.4255C34.0913 15.4255 34.1266 15.4307 34.1669 15.4356V15.8578C34.1216 15.8474 34.0764 15.8474 34.0156 15.8474C33.7041 15.8474 33.4823 16.0813 33.4222 16.4171C33.4118 16.4861 33.4067 16.5558 33.407 16.6255V17.9373H32.9644V16.2442ZM36.888 16.6863C36.888 17.5964 36.2589 17.9931 35.6755 17.9931C35.0212 17.9931 34.5083 17.5048 34.5083 16.7272C34.5083 15.9085 35.0466 15.4257 35.7158 15.4257C36.415 15.4257 36.888 15.9387 36.888 16.6863ZM34.9609 16.7119C34.9609 17.2508 35.2628 17.6577 35.6955 17.6577C36.1183 17.6577 36.435 17.2557 36.435 16.7016C36.435 16.2848 36.2287 15.7609 35.7055 15.7609C35.1875 15.7609 34.9609 16.2493 34.9609 16.7119ZM37.5664 16.1424C37.5664 15.8833 37.5611 15.6797 37.5461 15.4765H37.9386L37.9637 15.8833H37.9738C38.0945 15.6543 38.3763 15.4257 38.7788 15.4257C39.1156 15.4257 39.6391 15.6291 39.6391 16.4727V17.9372H39.1964V16.5186C39.1964 16.1223 39.0505 15.7915 38.633 15.7915C38.3461 15.7915 38.1195 16.0001 38.0394 16.2491C38.0191 16.3052 38.0091 16.3813 38.0091 16.4577V17.9372H37.5664V16.1424Z" fill="#1A1F71"/>
</svg>